<svg width="27" height="27" viewBox="0 0 27 27" fill="none" xmlns="http://www.w3.org/2000/svg">
<g clip-path="url(#clip0_5_16)">
<rect width="26.67" height="26.67" fill="white"/>
<path fill-rule="evenodd" clip-rule="evenodd" d="M13.335 26.67C20.6997 26.67 26.67 20.6997 26.67 13.335C26.67 5.97028 20.6997 0 13.335 0C5.97028 0 0 5.97028 0 13.335C0 20.6997 5.97028 26.67 13.335 26.67ZM8.66497 7.32996H18.0096C18.7439 7.32996 19.3446 7.93068 19.3446 8.66491V18.0096C19.3446 18.7438 18.7439 19.3445 18.0096 19.3445H8.66497C7.93075 19.3445 7.33002 18.7438 7.33002 18.0096V8.66491C7.33002 7.93068 7.93075 7.32996 8.66497 7.32996Z" fill="black"/>
</g>
<defs>
<clipPath id="clip0_5_16">
<rect width="26.67" height="26.67" fill="white"/>
</clipPath>
</defs>
</svg>
